<svg xmlns="http://www.w3.org/2000/svg" width="24" height="24" fill="none"><path fill="#00BEF0" d="M12 0C5.364 0 0 5.364 0 12s5.364 12 12 12 12-5.364 12-12S18.636 0 12 0Zm-1.659 17.088-.885 2.599c-3.318-1.106-5.53-4.258-5.53-7.798 0-3.539 2.212-6.636 5.586-7.797l.884 2.6c-2.212.718-3.65 2.82-3.65 5.142-.11 2.433 1.383 4.535 3.595 5.254Zm4.092 2.654-.83-2.654c2.268-.72 3.761-2.82 3.761-5.199 0-2.377-1.493-4.424-3.705-5.142l.885-2.655a8.202 8.202 0 0 1 5.64 7.797c0 3.65-2.322 6.802-5.75 7.853Z"/></svg>
